# xmcd CD database file
#
# Track frame offsets:
#	150
#	12020
#	28972
#	42442
#	68182
#	86962
#	102545
#	132087
#	152050
#
# Disc length: 2332 seconds
#
# Revision: 6
# Processed by: cddbd v1.5.2PL0 Copyright (c) Steve Scherf et al.
# Submitted via: CDex 1.70beta3
#
DISCID=77091a09
DTITLE=Eric Clapton - Another Ticket
DYEAR=1981
DGENRE=Blues Rock
TTITLE0=Something Special
TTITLE1=Black Rose
TTITLE2=Blow Wind Blow
TTITLE3=Another Ticket
TTITLE4=I Can't Stand It
TTITLE5=Hold Me Lord
TTITLE6=Floating Bridge
TTITLE7=Catch Me If You Can
TTITLE8=Rita Mae
EXTD=YEAR: 1981
EXTT0=
EXTT1=
EXTT2=
EXTT3=
EXTT4=
EXTT5=
EXTT6=
EXTT7=
EXTT8=
PLAYORDER=
